<?xml version="1.0" encoding="UTF-8"?>
<svg id="Capa_1" data-name="Capa 1" xmlns="http://www.w3.org/2000/svg" xmlns:xlink="http://www.w3.org/1999/xlink" viewBox="0 0 712.85 194.93">
  <defs>
    <style>
      .cls-1 {
        fill: #670000;
      }

      .cls-1, .cls-2, .cls-3, .cls-4, .cls-5, .cls-6, .cls-7, .cls-8, .cls-9 {
        stroke-width: 0px;
      }

      .cls-2 {
        fill: #f7dfd5;
      }

      .cls-3, .cls-10 {
        fill: #000;
      }

      .cls-4 {
        fill: #4c372d;
      }

      .cls-5 {
        fill: url(#Degradado_sin_nombre_335);
      }

      .cls-11 {
        fill: none;
        stroke: #fff;
      }

      .cls-11, .cls-10 {
        stroke-width: .33px;
      }

      .cls-11, .cls-10, .cls-12 {
        stroke-miterlimit: 10;
      }

      .cls-6 {
        fill: #050505;
      }

      .cls-10 {
        stroke: #000;
      }

      .cls-12 {
        fill: #d8a667;
        stroke: #826142;
        stroke-width: 1.65px;
      }

      .cls-7 {
        fill: #323442;
      }

      .cls-8 {
        fill: #fff;
      }

      .cls-9 {
        fill: #826142;
      }
    </style>
    <linearGradient id="Degradado_sin_nombre_335" data-name="Degradado sin nombre 335" x1="130.67" y1="158.65" x2="129.41" y2="89.3" gradientUnits="userSpaceOnUse">
      <stop offset="0" stop-color="#ff0"/>
      <stop offset=".11" stop-color="#f8c900"/>
      <stop offset=".24" stop-color="#f29401"/>
      <stop offset=".37" stop-color="#ed6701"/>
      <stop offset=".5" stop-color="#e94102"/>
      <stop offset=".63" stop-color="#e62502"/>
      <stop offset=".75" stop-color="#e31002"/>
      <stop offset=".88" stop-color="#e20402"/>
      <stop offset="1" stop-color="#e20003"/>
    </linearGradient>
  </defs>
  <g>
    <path class="cls-1" d="M242.16,112.07c-1.43,1.99-2.15,3.49-2.15,4.51,0,.18.07.45.21.8s.21.61.21.8c0,1.16-.79,1.73-2.36,1.73-.6,0-1.55-.21-2.84-.62-.19,0-.35.02-.49.07-.14.09-.35.28-.62.55h-5.76c-.46-.28-1.3-.46-2.5-.55-.37-.05-.81-.08-1.32-.1-.51-.02-1.06-.01-1.66.03-.93.05-1.57.07-1.94.07s-.49,0-.35,0c-.05,0-.37-.09-.97-.28-.6-.18-1.18-.28-1.73-.28s-1.3.09-2.22.28c-.93.19-1.62.28-2.08.28l-8.26-.42c-.28-.69-.42-1.27-.42-1.73,0-.83.53-1.53,1.6-2.08.88-.42,1.78-.62,2.71-.62.18-.55.28-1.02.28-1.39,0-.09-.01-.22-.03-.38-.02-.16-.06-.36-.1-.59-.05-.23-.07-.42-.07-.55v-.42l.07-.42c.14-.14.32-.39.55-.76.18-.51.28-1.71.28-3.61,0-.28-.03-.63-.1-1.08-.07-.44-.15-.88-.24-1.32-.09-.44-.17-.87-.24-1.28-.07-.42-.1-.76-.1-1.04,0-.18.01-.35.03-.49.02-.14.06-.3.1-.49.09-.09.2-.18.31-.28.11-.09.22-.18.31-.28v-4.09c-.28-.6-.42-1.25-.42-1.94,0-.6.14-1.36.42-2.29.14-.55.24-1.02.31-1.39.07-.37.13-.67.17-.9l-.69-.35c.37-1.25.55-2.45.55-3.61l-.35-.42c.09-.55.21-1.11.35-1.66v-2.43c0-.09-.06-.3-.17-.62-.12-.32-.17-.58-.17-.76-.88,0-1.87-.21-2.98-.62-1.3-.46-1.94-1.06-1.94-1.8,0-.23.35-.67,1.04-1.32.37-.32.68-.58.94-.76.25-.18.43-.3.52-.35,2.27.65,3.93,1.04,4.99,1.18.51.05,1.21.08,2.12.1.9.02,2.02.03,3.36.03.05.05.09.07.14.07s.11.02.21.07c.18.14.42.21.69.21.42,0,.97-.09,1.66-.28.46-.09.84-.16,1.14-.21.3-.05.5-.09.59-.14.46.09.91.16,1.35.21.44.05.84.07,1.21.07.42,0,.91-.03,1.49-.1.58-.07,1.26-.15,2.05-.24.79-.09,1.48-.17,2.08-.24.6-.07,1.09-.1,1.46-.1.23,0,.59.03,1.08.1.49.07.84.1,1.08.1.65,0,1.29-.35,1.94-1.04.6-.74,1.18-1.11,1.73-1.11.46,0,.76.12.9.35.65,2.73.97,4.14.97,4.23,0,1.53-.42,2.64-1.25,3.33v5.13c-.55.37-1.36.83-2.43,1.39-.28-.23-.65-.53-1.11-.9-1.02-.69-1.73-1.8-2.15-3.33-.55-1.85-.93-2.89-1.11-3.12-.51-.6-1.55-.95-3.12-1.04.97.05,1.17.08.59.1-.58.02-1.93.03-4.06.03-.09,0-.23-.06-.42-.17-.19-.11-.32-.2-.42-.24-1.11,0-2.08.19-2.91.55l-.69-.55h-2.15c-.79,1.71-1.18,2.61-1.18,2.71,0,.28.03.61.1,1.01.07.39.14.81.21,1.25.07.44.14.86.21,1.25.07.39.1.71.1.94,0,1.06-.07,2.59-.21,4.58-.05,1.02-.08,1.91-.1,2.67-.02.76-.03,1.4-.03,1.91.14.09.28.2.42.31.14.12.3.27.49.45h5.76c.23,0,.54-.13.94-.38.39-.25.73-.38,1.01-.38.18,0,.65.16,1.39.49.69,0,1.32-1.39,1.87-4.16.09-.23.21-.45.35-.66.14-.21.25-.43.35-.66.32-.6.62-.9.9-.9.09,0,.39.19.9.55.09.05.21.09.35.14.14.05.3.12.49.21.46.37.74,1.13.83,2.29-.05-.83-.08-1.04-.1-.62-.02.42-.03,1.46-.03,3.12,0,.19.12.49.35.9.23.42.35.74.35.97,0,.28-.12.59-.35.94-.23.35-.35.61-.35.8v3.82c-.19.18-.55.42-1.11.69-.32-.05-.65-.07-.97-.07s-.67-.02-1.04-.07c-.37-.05-.81-.49-1.32-1.32-.09-.42-.3-.92-.62-1.53-.19-.18-1.39-.35-3.61-.49-2.17-.14-3.68-.55-4.51-1.25h-2.98v2.22l.35.55c-.09.46-.16.9-.21,1.32,0,.32.03.8.1,1.42.07.62.1,1.08.1,1.35l-.49.69c.23.79.42,1.49.55,2.12s.18,1.19.14,1.7l-.69.55c.05.28.11.6.21.97.09.37.18.81.28,1.32.69,1.66,2.98,2.5,6.87,2.5.6,0,1.11-.09,1.53-.28,2.87,0,4.62-.07,5.27-.21.42-.09,1.01-.36,1.77-.8.76-.44,1.68-1.03,2.74-1.77.55-.65,1.39-1.46,2.5-2.43.09-.05.22-.11.38-.21.16-.09.33-.18.52-.28.46-.37,1.11-.79,1.94-1.25.14,0,.55.09,1.25.28v1.25c-.28.37-.49,1.13-.62,2.29Z"/>
    <path class="cls-1" d="M285.94,83.42c-.51,0-1.3-.53-2.36-1.6-.97-1.06-1.99-1.6-3.05-1.6-.32,0-1-.18-2.01-.55-.93-.42-1.55-.62-1.87-.62h-4.72c-.55.65-.83,1.06-.83,1.25.46,1.11.69,1.8.69,2.08,0,2.04-.35,3.98-1.04,5.83.46,1.39.62,2.64.49,3.75l-.49.9v2.43c.23.14.42,1.23.55,3.26l.28.55c-.05,1.02-.08,1.88-.1,2.6-.02.72-.03,1.31-.03,1.77,0,.55-.09.93-.28,1.11-.23.42-.37.67-.42.76.05.37.18.93.42,1.66.05.46.08.9.1,1.32.02.42.06.83.1,1.25.23,1.53.49,2.36.76,2.5-.28.28-.42.53-.42.76,0,.55.67,1.25,2.01,2.08,1.34.79,2.08,2.08,2.22,3.88-.23.55-.49.83-.76.83-.19,0-.44-.05-.76-.14-.32-.09-.55-.14-.69-.14h-4.37c-.79-.05-1.41-.11-1.87-.21-.23-.14-.51-.28-.83-.42-.6.37-1.32.6-2.15.69.32-.05.28-.07-.14-.07h-2.29c-3.84,0-5.92-.51-6.24-1.53-.09-.37-.14-.74-.14-1.11,0-.51.15-.91.45-1.21.3-.3.5-.66.59-1.08,3.47,0,5.2-1.22,5.2-3.68,0-.28-.12-.75-.35-1.42-.23-.67-.35-1.19-.35-1.56,0-.46.35-1.04,1.04-1.73,0-.32-.03-.75-.1-1.28-.07-.53-.1-.91-.1-1.14,0-.14.05-.36.14-.66.09-.3.14-.54.14-.73,0-.05-.07-.21-.21-.49s-.21-.49-.21-.62v-5.62s.14-.42.42-1.11c-.09-.37-.21-.65-.35-.83,0-.6.09-1.2.28-1.8.23-1.02.35-1.6.35-1.73,0-.46.03-1.02.1-1.66.07-.65.15-1.43.24-2.36,0-.23-.02-.54-.07-.94-.05-.39-.12-.89-.21-1.49-.14-1.06-.19-1.85-.14-2.36l.42-.9c-.79-.83-1.36-1.25-1.73-1.25-.32,0-.68.17-1.08.52-.39.35-.82.52-1.28.52-.19,0-.45-.11-.8-.35-.35-.23-.66-.35-.94-.35-.14,0-.83.23-2.08.69-1.25.46-2.45.69-3.61.69h-.28c-.28.69-1.11,1.87-2.5,3.54-1.48,1.76-2.47,2.64-2.98,2.64-1.2,0-1.8-1.06-1.8-3.19,0-.51.14-.97.42-1.39.18-.23.33-.44.45-.62.12-.18.2-.32.24-.42.18-.55.35-1.11.49-1.66s.3-1.09.49-1.6c.32-.6,1.11-1.48,2.36-2.64l.14-.83c.32-.28,1.13-.72,2.43-1.32,2.54-.05,4.16.12,4.86.49l.55-.35.9-.14c.69.74,2.61,1.11,5.76,1.11h7.21c.46.05,1.04.12,1.73.21.69.09,1.5.21,2.43.35l.69-.42,3.95-.14c.28,0,.9.19,1.87.55.92.32,1.69.49,2.29.49.46,0,1.2-.18,2.22-.55,1.02-.37,1.67-.55,1.94-.55.18,0,.39.08.62.24.23.16.45.36.66.59.21.23.38.47.52.73.14.25.21.45.21.59-.74,4.63-1.87,6.94-3.4,6.94Z"/>
    <path class="cls-1" d="M330.47,112.07c-1.43,1.99-2.15,3.49-2.15,4.51,0,.18.07.45.21.8s.21.61.21.8c0,1.16-.79,1.73-2.36,1.73-.6,0-1.55-.21-2.84-.62-.19,0-.35.02-.49.07-.14.09-.35.28-.62.55h-5.76c-.46-.28-1.3-.46-2.5-.55-.37-.05-.81-.08-1.32-.1-.51-.02-1.06-.01-1.66.03-.93.05-1.57.07-1.94.07s-.49,0-.35,0c-.05,0-.37-.09-.97-.28-.6-.18-1.18-.28-1.73-.28s-1.3.09-2.22.28c-.93.19-1.62.28-2.08.28l-8.26-.42c-.28-.69-.42-1.27-.42-1.73,0-.83.53-1.53,1.6-2.08.88-.42,1.78-.62,2.71-.62.18-.55.28-1.02.28-1.39,0-.09-.01-.22-.03-.38-.02-.16-.06-.36-.1-.59-.05-.23-.07-.42-.07-.55v-.42l.07-.42c.14-.14.32-.39.55-.76.18-.51.28-1.71.28-3.61,0-.28-.03-.63-.1-1.08-.07-.44-.15-.88-.24-1.32-.09-.44-.17-.87-.24-1.28-.07-.42-.1-.76-.1-1.04,0-.18.01-.35.03-.49.02-.14.06-.3.1-.49.09-.09.2-.18.31-.28.11-.09.22-.18.31-.28v-4.09c-.28-.6-.42-1.25-.42-1.94,0-.6.14-1.36.42-2.29.14-.55.24-1.02.31-1.39.07-.37.13-.67.17-.9l-.69-.35c.37-1.25.55-2.45.55-3.61l-.35-.42c.09-.55.21-1.11.35-1.66v-2.43c0-.09-.06-.3-.17-.62-.12-.32-.17-.58-.17-.76-.88,0-1.87-.21-2.98-.62-1.3-.46-1.94-1.06-1.94-1.8,0-.23.35-.67,1.04-1.32.37-.32.68-.58.94-.76.25-.18.43-.3.52-.35,2.27.65,3.93,1.04,4.99,1.18.51.05,1.21.08,2.12.1.9.02,2.02.03,3.36.03.05.05.09.07.14.07s.11.02.21.07c.18.14.42.21.69.21.42,0,.97-.09,1.66-.28.46-.09.84-.16,1.14-.21.3-.05.5-.09.59-.14.46.09.91.16,1.35.21.44.05.84.07,1.21.07.42,0,.91-.03,1.49-.1.58-.07,1.26-.15,2.05-.24.79-.09,1.48-.17,2.08-.24.6-.07,1.09-.1,1.46-.1.23,0,.59.03,1.08.1.49.07.84.1,1.08.1.65,0,1.29-.35,1.94-1.04.6-.74,1.18-1.11,1.73-1.11.46,0,.76.12.9.35.65,2.73.97,4.14.97,4.23,0,1.53-.42,2.64-1.25,3.33v5.13c-.55.37-1.36.83-2.43,1.39-.28-.23-.65-.53-1.11-.9-1.02-.69-1.73-1.8-2.15-3.33-.55-1.85-.93-2.89-1.11-3.12-.51-.6-1.55-.95-3.12-1.04.97.05,1.17.08.59.1-.58.02-1.93.03-4.06.03-.09,0-.23-.06-.42-.17-.19-.11-.32-.2-.42-.24-1.11,0-2.08.19-2.91.55l-.69-.55h-2.15c-.79,1.71-1.18,2.61-1.18,2.71,0,.28.03.61.1,1.01.07.39.14.81.21,1.25.07.44.14.86.21,1.25.07.39.1.71.1.94,0,1.06-.07,2.59-.21,4.58-.05,1.02-.08,1.91-.1,2.67-.02.76-.03,1.4-.03,1.91.14.09.28.2.42.31.14.12.3.27.49.45h5.76c.23,0,.54-.13.94-.38.39-.25.73-.38,1.01-.38.18,0,.65.16,1.39.49.69,0,1.32-1.39,1.87-4.16.09-.23.21-.45.35-.66.14-.21.25-.43.35-.66.32-.6.62-.9.9-.9.09,0,.39.19.9.55.09.05.21.09.35.14.14.05.3.12.49.21.46.37.74,1.13.83,2.29-.05-.83-.08-1.04-.1-.62-.02.42-.03,1.46-.03,3.12,0,.19.12.49.35.9.23.42.35.74.35.97,0,.28-.12.59-.35.94-.23.35-.35.61-.35.8v3.82c-.19.18-.55.42-1.11.69-.32-.05-.65-.07-.97-.07s-.67-.02-1.04-.07c-.37-.05-.81-.49-1.32-1.32-.09-.42-.3-.92-.62-1.53-.19-.18-1.39-.35-3.61-.49-2.17-.14-3.68-.55-4.51-1.25h-2.98v2.22l.35.55c-.09.46-.16.9-.21,1.32,0,.32.03.8.1,1.42.07.62.1,1.08.1,1.35l-.49.69c.23.79.42,1.49.55,2.12s.18,1.19.14,1.7l-.69.55c.05.28.11.6.21.97.09.37.18.81.28,1.32.69,1.66,2.98,2.5,6.87,2.5.6,0,1.11-.09,1.53-.28,2.87,0,4.62-.07,5.27-.21.42-.09,1.01-.36,1.77-.8.76-.44,1.68-1.03,2.74-1.77.55-.65,1.39-1.46,2.5-2.43.09-.05.22-.11.38-.21.16-.09.33-.18.52-.28.46-.37,1.11-.79,1.94-1.25.14,0,.55.09,1.25.28v1.25c-.28.37-.49,1.13-.62,2.29Z"/>
    <path class="cls-1" d="M375.36,118.94c-1.11-.09-2.02-.17-2.74-.24-.72-.07-1.24-.13-1.56-.17-.79-.09-1.53-.22-2.22-.38-.69-.16-1.34-.36-1.94-.59l-.62-.49h-2.08l-.69-.35-.69.35-.28-.42v-.76l-1.8-1.18-1.11-2.36-.76-.14-1.73-2.77v-1.25c-.55-1.76-1.3-3.14-2.22-4.16v-.97l-1.46-1.8.07-1.32-1.87-1.87-2.43-.97h-.76l-1.25-.9h-1.11l-.9,1.04c.05,1.53.07,2.68.07,3.47v1.66c0,.32-.02.83-.07,1.53l-.35.49c.09,1.02.17,1.92.24,2.71.07.79.1,1.48.1,2.08l-.35.55.28,4.51c.51.88,1.06,1.48,1.66,1.8l2.43.35.42-.42.76.07.69.69.55,1.6-.28.76-.97.28h-1.39c-.09,0-.36-.06-.8-.17-.44-.12-.71-.2-.8-.24-.65,0-1.43-.03-2.36-.1-.93-.07-1.99-.2-3.19-.38l-.42.21c-.51-.09-1.02-.18-1.53-.28h-.83c-.51,0-1.3.02-2.36.07l-1.25.9c-1.2-.42-2.11-1.04-2.71-1.87l-.21-.83,1.11-.9,1.18-.07.55.42c.23-.09.52-.31.87-.66.35-.35.77-.77,1.28-1.28.23-.92.44-2.2.62-3.82l-.28-.69.9-.49-.62-.69c-.09-1.2.21-2.34.9-3.4-.09-1.71-.3-4.28-.62-7.7l.35-.62v-4.16l-.35-.62,1.04-1.94-.42-.76.28-2.08-.49-1.04.62-1.25-.21-5.97-1.46-1.6h-.76c-.42.05-.86.09-1.32.14l-.69.83-.69.14-1.18-.69-.35-.97.14-1.53.42-.69.97-.76h1.87l1.73.69.49-.35c5.5,0,8.63.19,9.37.55.42-.23,1.76-.37,4.02-.42,2.64-.05,4.21-.11,4.72-.21,1.9.97,3.82,1.48,5.76,1.53l.55.49.76.07,2.77,2.43c.09.42.22.81.38,1.18.16.37.34.72.52,1.04-.14.88,0,1.87.42,2.98-.05.19-.1.43-.17.73-.07.3-.15.71-.24,1.21-.23.79-.3,1.43-.21,1.94l-1.25,1.87-.07,1.46-1.32,1.6-1.87.55-1.53,1.11h-1.53l-1.73,1.73c.09.14.67.79,1.73,1.94l.28.83.62.55.28.69.83-.07c.46.32.83.74,1.11,1.25l-.14,1.32c.32,1.06,1.02,2.24,2.08,3.54.74.93,1.31,1.66,1.7,2.22.39.55.63.88.73.97.18.32.45.74.8,1.25.35.51.77,1.09,1.28,1.73.23.23.55.52.97.87s.88.75,1.39,1.21l2.57.42.49-.14c.92.32,1.57.72,1.94,1.18v2.15l-1.11,1.04ZM359.68,87.93c.09-1.02.16-2.03.21-3.05,0-.79-.3-1.71-.9-2.77l-.83-.69.07-.35-.55-.76h-.55c-1.48-1.94-3.05-2.94-4.72-2.98l-.21-.42c-.6.09-1.27.15-2.01.17-.74.02-1.57.06-2.5.1-.32.32-.95,1.48-1.87,3.47l.49.83v1.39c-.14.97-.28,1.97-.42,2.98l-.42.69v1.46l.28.49-.42.69v.76l.76.62-.62.9-.14,2.29.49.35,2.08-.35,1.53.35,1.04-.28,2.71.42.83-.49,1.94-.21.76-.9h.83l2.43-2.5.07-1.67-.35-.55Z"/>
    <path class="cls-1" d="M431.97,78.63c-.14.05-1.3.26-3.47.62-1.2.23-1.8.69-1.8,1.39,0,.37.07.91.21,1.63.14.72.21,1.26.21,1.63,0,.74-.25,1.87-.76,3.4-.46,1.39-.69,2.24-.69,2.57,0,.37.1.93.31,1.66.21.74.31,1.29.31,1.66,0,1.02-.14,2.57-.42,4.65-.28,2.45-.58,3.93-.9,4.44,0,.83.23,1.94.69,3.33-.51.51-.76,1.85-.76,4.02,0,.23.02.42.07.55.18.09.39.2.62.31.23.12.46.24.69.38.28.51.74,1.25,1.39,2.22.32.23.69.53,1.11.9.37.42.73.83,1.08,1.25.35.42.7.83,1.08,1.25.92.93,1.8,1.5,2.64,1.73v1.46c-.37-.14-1-.21-1.87-.21-.14,0-.32.06-.55.17-.23.11-.39.17-.49.17-.32,0-.8-.02-1.42-.07-.62-.05-1.1-.07-1.42-.07-.28,0-.65.07-1.11.21-.46.14-.81.21-1.04.21-.55,0-1.39-.16-2.5-.49-1.94-.46-3.12-.95-3.54-1.46-.32-.51-.62-1.02-.9-1.53-.28-.51-.58-1.02-.9-1.53-.28-.51-1.76-1.69-4.44-3.54-1.76-2.78-2.89-4.49-3.4-5.13-1.57-1.99-3.1-3.28-4.58-3.88l-2.15-3.33c-.46-.65-1.43-1.46-2.91-2.43-.74-.51-1.34-.96-1.8-1.35-.46-.39-.81-.75-1.04-1.08-.28-.65-.6-1.29-.97-1.94-2.87-2.91-4.6-4.37-5.2-4.37s-.9.28-.9.83c.79,1.06,1.18,2.11,1.18,3.12,0,.37-.09.89-.28,1.56-.19.67-.28,1.17-.28,1.49,0,.23.02.42.07.55.28.32.44.72.49,1.18,0,.74.07,1.83.21,3.26.32,1.34.49,2.17.49,2.5,0,.18-.05.47-.14.87-.09.39-.14.68-.14.87,0,4.86.11,7.47.35,7.84.32.65,1.43,1.16,3.33,1.53,1.9.42,2.91.69,3.05.83.14.09.25.6.35,1.53.42.42.65.76.69,1.04-.32.51-.76,1.06-1.32,1.66-.05.05-.95.07-2.71.07h-.35c-.51.19-1.04.37-1.6.55-.51,0-.87-.09-1.08-.28-.21-.18-.38-.28-.52-.28-1.39.65-2.71.97-3.95.97-.51,0-1.04-.21-1.6-.62-.05-.05-.19-.07-.42-.07-.28,0-.71.05-1.28.14-.58.09-1.01.14-1.28.14-2.04,0-3.05-.76-3.05-2.29,0-1.29.72-2.17,2.15-2.64.46-.14.91-.28,1.35-.42.44-.14.89-.25,1.35-.35.42-.28.62-.97.62-2.08,0-.32-.13-.77-.38-1.35-.25-.58-.38-1.03-.38-1.35s.13-.76.38-1.32c.25-.55.38-.97.38-1.25,0-.09-.13-.38-.38-.87-.25-.49-.38-.84-.38-1.08l.21-.35.35-.42c.09-.14.16-.37.21-.69-.09-.51-.16-1.04-.21-1.6.05-1.71.12-3.42.21-5.13-.19-.28-.42-.79-.69-1.53.05-.74.25-1.29.62-1.67l-.14-1.39-.62-.97v-2.08c0-.92.16-1.62.49-2.08.14-.23.25-.46.35-.69-.09-.18-.19-.39-.28-.62-.09-.23-.23-.51-.42-.83v-1.94c0-.28-.44-.62-1.32-1.04-.28-.14-.55-.28-.83-.42-.28-.14-.58-.28-.9-.42-.09-.18-.22-.38-.38-.59-.16-.21-.36-.43-.59-.66-.6-.18-1.25-.44-1.94-.76-.83-.32-1.25-.95-1.25-1.87.83-1.39,2.2-2.08,4.09-2.08.14-.05.35-.18.62-.42.28.14.69.28,1.25.42.23,0,.58-.02,1.04-.07.46-.05.81-.07,1.04-.07s.6.05,1.11.14c.51.09.9.14,1.18.14.46-.05.92-.11,1.39-.21.28-.09.64,0,1.08.28.44.28.77.42,1.01.42h3.54s.88.35,2.5,1.04v1.25l-.49.76c-.37.18-.74.35-1.11.49-.32.19-.49.53-.49,1.04,0,.37.09.66.28.87.18.21.38.38.59.52.21.14.4.25.59.35.18.09.28.19.28.28,0,1.02.11,1.64.35,1.87.97.28,2.03,1.02,3.19,2.22.46.51.9,1.01,1.32,1.49.42.49.86.98,1.32,1.49.51.51,1.09,1.06,1.73,1.66.65.6,1.34,1.3,2.08,2.08,1.11,1.8,3.19,3.98,6.24,6.52.69,1.62,1.8,2.89,3.33,3.82.14.05.3.07.49.07s.39.02.62.07c.69.6,1.18,1.2,1.46,1.8.92-.83,1.39-1.57,1.39-2.22-.19-.32-.28-.55-.28-.69.09-.92.18-1.87.28-2.84,0-1.06-.22-1.95-.66-2.67-.44-.72-.66-1.12-.66-1.21.32-.69.53-1.32.62-1.87.05-.23.07-.46.07-.69v-.9c-.05-.51-.08-.94-.1-1.28-.02-.35-.03-.61-.03-.8,0-.37.02-.83.07-1.39.05-.55.11-1.2.21-1.94.09-.74.17-1.4.24-1.98.07-.58.1-1.05.1-1.42-.05-.88-.09-1.78-.14-2.71-4.58-.32-6.87-1.34-6.87-3.05,0-.97.92-1.69,2.77-2.15,2.22-.55,3.47-.97,3.75-1.25,1.39.14,4.99.14,10.82,0,.51,0,1.04.23,1.6.69.56.46.83.95.83,1.46,0,1.34-.62,2.24-1.87,2.71Z"/>
    <path class="cls-1" d="M480.81,119.35l-1.25.42-1.87-.42c-1.34.09-2.66.18-3.95.28-.09,0-.2-.01-.31-.03-.12-.02-.27-.06-.45-.1-.23-.05-.42-.07-.55-.07s-.25-.02-.35-.07c-.55-.05-1.32-.07-2.29-.07h-3.4c-.55.14-1.11.3-1.66.49-.46-.42-1.2-.67-2.22-.76l-.62-1.04.35-1.11.55-.35.62.28.07-.49,1.94.14.83.35,1.04-.49.83-.97c-.09-.23-.28-.66-.55-1.28s-.65-1.42-1.11-2.39l.21-.49c-.37-.37-.72-1.22-1.04-2.57-.46-1.62-.83-2.64-1.11-3.05l-.14-1.25-1.11-2.08-.21-1.87c-1.39-.55-2.24-.83-2.57-.83h-8.26c-.19.05-.37.09-.55.14l-.69.42-.14.83-.62.49.07.76-.49.62.35.07-1.39,3.05v1.53l-.76-.14.07,1.04-1.18,3.12.62.35-.21.76h-.62l.14,1.11.9.76.21,1.39.55-.07.97.76,1.11-.07c1.76.28,2.94.79,3.54,1.53l-.42.83-.49.07-.14.69-2.5-.21c-1.57.14-3.17.25-4.79.35-.42-.14-.81-.26-1.18-.35l-.97.62-1.04-.69c-.93.09-1.97.23-3.12.42l-.76-.35-.55,1.04c-.83-.55-1.8-.9-2.91-1.04-.69-.46-1.16-1.11-1.39-1.94.6-1.16,1.76-2.06,3.47-2.71,1.94-.74,3.28-1.53,4.02-2.36.74-.83,1.5-2.61,2.29-5.34.79-2.64,1.62-4.32,2.5-5.06l.07-1.39.97-.83-.07-1.66.49-.35c.37-1.02.72-1.97,1.04-2.84.32-.88.6-1.71.83-2.5l.9-.49c-.05-.14-.07-.3-.07-.49,0-.55.3-1.41.9-2.57.55-1.06.79-1.94.69-2.64.18-.28.39-.66.62-1.14.23-.49.49-1.1.76-1.84l.49-.42,2.15-5.76,4.79-2.91,1.73-.07,1.25.62.21,1.32-.49-.07.07,1.53h.49c.18.65.39,1.35.62,2.12.23.76.53,1.58.9,2.46l-.28.97,1.53,1.46.55-.28c.05,1.06.09,2.11.14,3.12-.09.88-.19,1.78-.28,2.71l.69,1.32.28,2.22c.65.74,1.31,1.55,1.98,2.43.67.88,1.33,1.83,1.98,2.84l-.07,1.94-.21.49v1.18l1.04.49-.07,1.39c.14.23.27.54.38.94.11.39.22.81.31,1.25.09.44.16.86.21,1.25.05.39.07.71.07.94.46,1.39,1.36,3.19,2.71,5.41l1.73.76c.51.42.95.9,1.32,1.46h.83l1.53,1.66-1.04,1.39ZM460.62,94.17l-.55-1.53c-1.06-.88-1.57-2.08-1.53-3.61l-.76-.76-.49-1.32-.97-.42-1.04,1.04-1.39,3.12c.09,1.02-.16,1.99-.76,2.91l.14,1.11-.83.49.9.76c.97.23,2.43.65,4.37,1.25.65-.09,1.48-.42,2.5-.97l.42-.42v-1.66Z"/>
    <path class="cls-1" d="M514.38,83.42c-.51,0-1.3-.53-2.36-1.6-.97-1.06-1.99-1.6-3.05-1.6-.32,0-1-.18-2.01-.55-.93-.42-1.55-.62-1.87-.62h-4.72c-.55.65-.83,1.06-.83,1.25.46,1.11.69,1.8.69,2.08,0,2.04-.35,3.98-1.04,5.83.46,1.39.62,2.64.49,3.75l-.49.9v2.43c.23.14.42,1.23.55,3.26l.28.55c-.05,1.02-.08,1.88-.1,2.6-.02.72-.03,1.31-.03,1.77,0,.55-.09.93-.28,1.11-.23.42-.37.67-.42.76.05.37.18.93.42,1.66.05.46.08.9.1,1.32.02.42.06.83.1,1.25.23,1.53.49,2.36.76,2.5-.28.28-.42.53-.42.76,0,.55.67,1.25,2.01,2.08,1.34.79,2.08,2.08,2.22,3.88-.23.55-.49.83-.76.83-.19,0-.44-.05-.76-.14-.32-.09-.55-.14-.69-.14h-4.37c-.79-.05-1.41-.11-1.87-.21-.23-.14-.51-.28-.83-.42-.6.37-1.32.6-2.15.69.32-.05.28-.07-.14-.07h-2.29c-3.84,0-5.92-.51-6.24-1.53-.09-.37-.14-.74-.14-1.11,0-.51.15-.91.45-1.21.3-.3.5-.66.59-1.08,3.47,0,5.2-1.22,5.2-3.68,0-.28-.12-.75-.35-1.42-.23-.67-.35-1.19-.35-1.56,0-.46.35-1.04,1.04-1.73,0-.32-.03-.75-.1-1.28-.07-.53-.1-.91-.1-1.14,0-.14.05-.36.14-.66.09-.3.14-.54.14-.73,0-.05-.07-.21-.21-.49s-.21-.49-.21-.62v-5.62s.14-.42.42-1.11c-.09-.37-.21-.65-.35-.83,0-.6.09-1.2.28-1.8.23-1.02.35-1.6.35-1.73,0-.46.03-1.02.1-1.66.07-.65.15-1.43.24-2.36,0-.23-.02-.54-.07-.94-.05-.39-.12-.89-.21-1.49-.14-1.06-.19-1.85-.14-2.36l.42-.9c-.79-.83-1.36-1.25-1.73-1.25-.32,0-.68.17-1.08.52-.39.35-.82.52-1.28.52-.19,0-.45-.11-.8-.35-.35-.23-.66-.35-.94-.35-.14,0-.83.23-2.08.69-1.25.46-2.45.69-3.61.69h-.28c-.28.69-1.11,1.87-2.5,3.54-1.48,1.76-2.47,2.64-2.98,2.64-1.2,0-1.8-1.06-1.8-3.19,0-.51.14-.97.42-1.39.18-.23.33-.44.45-.62.12-.18.2-.32.24-.42.18-.55.35-1.11.49-1.66s.3-1.09.49-1.6c.32-.6,1.11-1.48,2.36-2.64l.14-.83c.32-.28,1.13-.72,2.43-1.32,2.54-.05,4.16.12,4.86.49l.55-.35.9-.14c.69.74,2.61,1.11,5.76,1.11h7.21c.46.05,1.04.12,1.73.21.69.09,1.5.21,2.43.35l.69-.42,3.95-.14c.28,0,.9.19,1.87.55.92.32,1.69.49,2.29.49.46,0,1.2-.18,2.22-.55,1.02-.37,1.67-.55,1.94-.55.18,0,.39.08.62.24.23.16.45.36.66.59.21.23.38.47.52.73.14.25.21.45.21.59-.74,4.63-1.87,6.94-3.4,6.94Z"/>
    <path class="cls-1" d="M571.75,78.7c-.69.32-1.87.49-3.54.49-.32.05-.65.12-.97.21-.51.88-.81,2.38-.9,4.51v2.43c0,.79-.02,1.57-.07,2.36l.55.9c-.28,1.99-.32,4-.14,6.04l-.69.49c.18.93.32,1.83.42,2.71.09.88.14,1.73.14,2.57,0,.14-.01.31-.03.52-.02.21-.06.45-.1.73-.05.32-.07.6-.07.83,0,.19-.02.32-.07.42-.09,1.34-.16,2.41-.21,3.19-.05.79-.09,1.29-.14,1.53-.28,1.99-.74,3.45-1.39,4.37v1.66c-.65.83-1.48,1.43-2.5,1.8l.21,1.18-1.39,1.6c-.6.05-1.06.07-1.39.07h-.42c-.6-.09-1.2-.18-1.8-.28l-.49,1.39c-3.19.83-5.62,1.25-7.28,1.25s-2.59-.02-2.77-.07c-.65-.18-1.55-.46-2.71-.83h-.62c-.19,0-.44.02-.76.07-.37.05-.67.07-.9.07h-.49c-.97-.09-1.94-.19-2.91-.28-.79-.88-1.73-1.7-2.84-2.46-1.11-.76-2.34-1.51-3.68-2.25l-.21-1.46c-1.06-1.57-1.8-2.94-2.22-4.09l-1.11-1.11-.69-3.19c0-1.39.16-2.5.49-3.33-.55-1.66-.74-3.38-.55-5.13l.83-1.53-.83-1.46-.07-2.43-.83-.97.97-1.11c.18-1.11.35-2.22.49-3.33-.14-.69-.25-1.41-.35-2.15.18-.32.28-1.34.28-3.05,0-.14.07-.53.21-1.18.14-.51.18-.88.14-1.11-.93-.55-1.85-.97-2.77-1.25-.37.09-.74.16-1.11.21-.42,0-1.09-.09-2.01-.28l-.69-.9.21-1.6c.51-.46,1.36-.69,2.57-.69.28,0,.75.03,1.42.1.67.07,1.17.1,1.49.1,1.71-.05,3.42-.09,5.13-.14l.35-.28.28.28c.37-.05.83-.08,1.39-.1.55-.02,1.2-.08,1.94-.17.14-.05.36-.1.66-.17.3-.07.68-.17,1.14-.31.79-.23,1.41-.35,1.87-.35.23.05.46.09.69.14l.42.69.07.76-.76.76-.35-.07-.07.49c-.79.65-1.55,1-2.29,1.04l-.62.76c0,.28-.03.89-.1,1.84-.07.95-.15,2.23-.24,3.85-.14,2.31-.21,4.21-.21,5.69,0,.23-.08.6-.24,1.11-.16.51-.24.88-.24,1.11,0-.28.14,1.25.42,4.58.18,1.94.31,3.67.38,5.17.07,1.5.1,2.81.1,3.92.79,1.76,1.5,3.31,2.15,4.65.65,1.34,1.25,2.45,1.8,3.33.79.37,1.56.74,2.32,1.11.76.37,1.49.74,2.19,1.11,1.71.14,3.08-.09,4.09-.69l1.6.9,1.25-.62,1.94.21c1.06-1.16,1.86-2.06,2.39-2.71.53-.65.84-1.02.94-1.11,1.2-1.53,2.17-2.94,2.91-4.23.18-1.2.35-2.33.49-3.4.14-1.06.3-2.06.49-2.98l-.55-.97c-.09-1.06-.21-2.1-.35-3.12,0-.23.07-.6.21-1.11.14-.51.21-.88.21-1.11.14-1.11.21-3.12.21-6.04,0-.28-.01-.61-.03-1.01-.02-.39-.06-.8-.1-1.21-.05-.42-.08-.82-.1-1.21-.02-.39-.03-.7-.03-.94s.07-.6.21-1.11c.14-.51.21-.88.21-1.11v-1.6l-.97-.28-.42-.9c-.97-.37-2.77-.74-5.41-1.11l-.9-.97v-1.53c.74-.74,2.01-1.13,3.82-1.18l.42.35.83-.14,2.01.9.21-.42c.92.23,1.92.35,2.98.35.32,0,.81-.08,1.46-.24.65-.16,1.13-.24,1.46-.24.28,0,.55.05.83.14l.42-.49.56.49c.69-.18,1.39-.35,2.08-.49.46.05.92.12,1.39.21l.83.69c.05,1.2-.42,2.2-1.39,2.98Z"/>
    <path class="cls-1" d="M618.23,118.94c-1.11-.09-2.02-.17-2.74-.24-.72-.07-1.24-.13-1.56-.17-.79-.09-1.53-.22-2.22-.38-.69-.16-1.34-.36-1.94-.59l-.62-.49h-2.08l-.69-.35-.69.35-.28-.42v-.76l-1.8-1.18-1.11-2.36-.76-.14-1.73-2.77v-1.25c-.55-1.76-1.29-3.14-2.22-4.16v-.97l-1.46-1.8.07-1.32-1.87-1.87-2.43-.97h-.76l-1.25-.9h-1.11l-.9,1.04c.05,1.53.07,2.68.07,3.47v1.66c0,.32-.02.83-.07,1.53l-.35.49c.09,1.02.17,1.92.24,2.71.07.79.1,1.48.1,2.08l-.35.55.28,4.51c.51.88,1.06,1.48,1.66,1.8l2.43.35.42-.42.76.07.69.69.55,1.6-.28.76-.97.28h-1.39c-.09,0-.36-.06-.8-.17-.44-.12-.71-.2-.8-.24-.65,0-1.43-.03-2.36-.1-.93-.07-1.99-.2-3.19-.38l-.42.21c-.51-.09-1.02-.18-1.53-.28h-.83c-.51,0-1.29.02-2.36.07l-1.25.9c-1.2-.42-2.11-1.04-2.71-1.87l-.21-.83,1.11-.9,1.18-.07.55.42c.23-.09.52-.31.87-.66l1.28-1.28c.23-.92.44-2.2.62-3.82l-.28-.69.9-.49-.62-.69c-.09-1.2.21-2.34.9-3.4-.09-1.71-.3-4.28-.62-7.7l.35-.62v-4.16l-.35-.62,1.04-1.94-.42-.76.28-2.08-.49-1.04.62-1.25-.21-5.97-1.46-1.6h-.76c-.42.05-.86.09-1.32.14l-.69.83-.69.14-1.18-.69-.35-.97.14-1.53.42-.69.97-.76h1.87l1.73.69.49-.35c5.5,0,8.62.19,9.36.55.42-.23,1.76-.37,4.02-.42,2.64-.05,4.21-.11,4.72-.21,1.9.97,3.82,1.48,5.76,1.53l.55.49.76.07,2.78,2.43c.09.42.22.81.38,1.18.16.37.34.72.52,1.04-.14.88,0,1.87.42,2.98-.05.19-.1.43-.17.73-.07.3-.15.71-.24,1.21-.23.79-.3,1.43-.21,1.94l-1.25,1.87-.07,1.46-1.32,1.6-1.87.55-1.53,1.11h-1.53l-1.73,1.73c.09.14.67.79,1.73,1.94l.28.83.62.55.28.69.83-.07c.46.32.83.74,1.11,1.25l-.14,1.32c.32,1.06,1.02,2.24,2.08,3.54.74.93,1.31,1.66,1.7,2.22.39.55.63.88.73.97.18.32.45.74.8,1.25.35.51.77,1.09,1.28,1.73.23.23.55.52.97.87.42.35.88.75,1.39,1.21l2.57.42.49-.14c.92.32,1.57.72,1.94,1.18v2.15l-1.11,1.04ZM602.55,87.93c.09-1.02.16-2.03.21-3.05,0-.79-.3-1.71-.9-2.77l-.83-.69.07-.35-.55-.76h-.56c-1.48-1.94-3.05-2.94-4.72-2.98l-.21-.42c-.6.09-1.27.15-2.01.17-.74.02-1.57.06-2.5.1-.32.32-.95,1.48-1.87,3.47l.49.83v1.39c-.14.97-.28,1.97-.42,2.98l-.42.69v1.46l.28.49-.42.69v.76l.76.62-.62.9-.14,2.29.49.35,2.08-.35,1.53.35,1.04-.28,2.71.42.83-.49,1.94-.21.76-.9h.83l2.43-2.5.07-1.67-.35-.55Z"/>
    <path class="cls-1" d="M669.15,119.35l-1.25.42-1.87-.42c-1.34.09-2.66.18-3.95.28-.09,0-.2-.01-.31-.03-.12-.02-.27-.06-.45-.1-.23-.05-.42-.07-.55-.07s-.25-.02-.35-.07c-.55-.05-1.32-.07-2.29-.07h-3.4c-.55.14-1.11.3-1.67.49-.46-.42-1.2-.67-2.22-.76l-.62-1.04.35-1.11.55-.35.62.28.07-.49,1.94.14.83.35,1.04-.49.83-.97c-.09-.23-.28-.66-.55-1.28s-.65-1.42-1.11-2.39l.21-.49c-.37-.37-.72-1.22-1.04-2.57-.46-1.62-.83-2.64-1.11-3.05l-.14-1.25-1.11-2.08-.21-1.87c-1.39-.55-2.24-.83-2.57-.83h-8.25c-.19.05-.37.09-.55.14l-.69.42-.14.83-.62.49.07.76-.49.62.35.07-1.39,3.05v1.53l-.76-.14.07,1.04-1.18,3.12.62.35-.21.76h-.62l.14,1.11.9.76.21,1.39.55-.07.97.76,1.11-.07c1.76.28,2.94.79,3.54,1.53l-.42.83-.49.07-.14.69-2.5-.21c-1.57.14-3.17.25-4.79.35-.42-.14-.81-.26-1.18-.35l-.97.62-1.04-.69c-.93.09-1.97.23-3.12.42l-.76-.35-.55,1.04c-.83-.55-1.8-.9-2.91-1.04-.69-.46-1.16-1.11-1.39-1.94.6-1.16,1.76-2.06,3.47-2.71,1.94-.74,3.28-1.53,4.02-2.36.74-.83,1.5-2.61,2.29-5.34.79-2.64,1.62-4.32,2.5-5.06l.07-1.39.97-.83-.07-1.66.49-.35c.37-1.02.72-1.97,1.04-2.84.32-.88.6-1.71.83-2.5l.9-.49c-.05-.14-.07-.3-.07-.49,0-.55.3-1.41.9-2.57.55-1.06.79-1.94.69-2.64.18-.28.39-.66.62-1.14.23-.49.49-1.1.76-1.84l.49-.42,2.15-5.76,4.79-2.91,1.73-.07,1.25.62.21,1.32-.49-.07.07,1.53h.49c.18.65.39,1.35.62,2.12.23.76.53,1.58.9,2.46l-.28.97,1.53,1.46.55-.28c.05,1.06.09,2.11.14,3.12-.09.88-.19,1.78-.28,2.71l.69,1.32.28,2.22c.65.74,1.31,1.55,1.98,2.43.67.88,1.33,1.83,1.98,2.84l-.07,1.94-.21.49v1.18l1.04.49-.07,1.39c.14.23.27.54.38.94.11.39.22.81.31,1.25.09.44.16.86.21,1.25.05.39.07.71.07.94.46,1.39,1.36,3.19,2.71,5.41l1.73.76c.51.42.95.9,1.32,1.46h.83l1.53,1.66-1.04,1.39ZM648.96,94.17l-.55-1.53c-1.06-.88-1.57-2.08-1.53-3.61l-.76-.76-.49-1.32-.97-.42-1.04,1.04-1.39,3.12c.09,1.02-.16,1.99-.76,2.91l.14,1.11-.83.49.9.76c.97.23,2.43.65,4.37,1.25.65-.09,1.48-.42,2.5-.97l.42-.42v-1.66Z"/>
    <path class="cls-1" d="M712.72,107.91c-.09.65-.23,1.55-.42,2.71,0,.09-.28.37-.83.83-.05.09-.07.6-.07,1.53l-1.6,1.66c-.65,1.94-1.48,3.26-2.5,3.95-1.57.37-3.12.65-4.65.83l-1.25-.42c-1.76.42-4.19.62-7.28.62-.32,0-.72-.07-1.18-.21-.32-.05-.59-.08-.8-.1-.21-.02-.36-.03-.45-.03-.23-.05-1.48-.07-3.75-.07-.37,0-.72-.09-1.04-.28-.28-.42-.88-.62-1.8-.62-.74,0-2.73.37-5.97,1.11-.28-.09-.51-.14-.69-.14l-4.58.07c-1.39-.55-2.08-1.29-2.08-2.22,0-.28.22-.67.66-1.18.44-.51.87-.76,1.28-.76l4.37-.21c0-.09.08-.32.24-.69.16-.37.24-.6.24-.69,0-.32-.1-.77-.31-1.35-.21-.58-.31-.98-.31-1.21,0-.42.1-1.06.31-1.94.21-.88.31-1.55.31-2.01l-.21-5c.09-.23.18-.53.28-.9.09-.37.18-.81.28-1.32l-.21-5.83c-.46-.32-.69-.76-.69-1.32,0-.18.05-.44.14-.76.09-.32.2-.63.31-.94.11-.3.22-.58.31-.83.09-.25.14-.43.14-.52l-.21-4.51c.14-.23.25-.53.35-.9l-.14-5.2s-.88-.07-2.5-.07c-1.8,0-2.71-.55-2.71-1.66,0-1.02.69-1.8,2.08-2.36,1.57-.6,2.4-1.02,2.5-1.25h.21c.18-.05.45-.01.8.1.35.12.59.17.73.17.46,0,1.04.01,1.73.03.69.02,1.55.06,2.57.1.09-.05.2-.1.31-.17s.27-.15.45-.24c.32.6.9.9,1.73.9.28,0,.65-.05,1.11-.14.46-.09.81-.14,1.04-.14l4.51-.21c.28.32.74.86,1.39,1.6,0,1.85-1.3,2.77-3.88,2.77-.65,0-1.21-.16-1.7-.49-.49-.32-.84-.49-1.08-.49-.28.14-.55.29-.83.45-.28.16-.58.34-.9.52l.35,8.26c.05,1.39-.28,2.89-.97,4.51,0,.28.24.69.73,1.25.49.55.73,1.13.73,1.73,0,.23-.12.53-.35.9-.28.32-.46.62-.55.9.55.93.83,2.06.83,3.4,0,.37-.1.88-.31,1.53-.21.65-.31,1.13-.31,1.46,0,.46.14.87.42,1.21.28.35.42.64.42.87l.21,4.65c-.6.46-.97.9-1.11,1.32-.19.56-.37.97-.55,1.25v.83c1.57,1.2,2.68,1.97,3.33,2.29,1.02.42,2.4.62,4.16.62,1.06,0,2.06-.28,2.98-.83,1.02-.05,2.52-.3,4.51-.76.46-.18.9-.53,1.32-1.04.42-.51.74-.83.97-.97,1.2-.74,2.29-1.29,3.26-1.67.83-.37,1.6-.97,2.29-1.8.88-1.11,1.36-1.69,1.46-1.73.28-.14.54-.28.8-.42.25-.14.4-.42.45-.83l.97-.07c.23.55.35.97.35,1.25,0,.23-.05.67-.14,1.32Z"/>
  </g>
  <g>
    <circle class="cls-12" cx="97.46" cy="97.46" r="96.64"/>
    <circle class="cls-9" cx="97.46" cy="97.46" r="80.19"/>
    <circle class="cls-4" cx="97.46" cy="97.46" r="65.91"/>
    <g>
      <path class="cls-7" d="M98.53,173.15l.21.43.85-5.97,1.92-11.94s2.47-13.42,6.46-16.41c3.99-2.99,8.89-30.49,8.89-30.49,0,0-7.54-20.91-19.4-14.29l1.07,78.67Z"/>
      <path class="cls-6" d="M98.59,173.14l.21.41-.13.02c.73-5.62,1.63-11.22,2.49-16.82,1.03-5.57,2.21-11.28,5.23-16.18.78-1.21,2.06-1.86,2.65-3.24,1.85-3.79,2.85-7.96,3.91-12.03,1.35-5.49,2.48-11.05,3.48-16.61-2.56-6.08-9.49-19.04-18.69-13.71,0,0,.29-.51.29-.51.51,25.93.83,52.8.56,78.67h0ZM98.46,173.17c-.98-25.92-1.39-53.02-1.58-79.03,9.92-5.83,17.66,6.69,20.41,14.7-2.04,9.69-3.61,19.69-7.73,28.77-.55,1.32-1.92,2.11-2.73,3.27-1.57,2.29-2.51,5.01-3.35,7.69-2.43,8.22-3.33,16.8-4.71,25.24,0,0-.1-.2-.1-.2l-.22-.44h0Z"/>
    </g>
    <g>
      <path class="cls-5" d="M98.1,94.9l-.43-65.24,5.54-3.2s1.64,3.41,4.69,5.54c3.05,2.13,6.4-2.56,6.4-2.56,0,0,2.58,5.97,5.12,7.25s10.23-3.41,10.23-3.41c0,0,3.13,11.51,9.22,15.78,0,0,14.31,10.05,20.31,25.16.51,1.28.33,1.92-3.09-.21,0,0,7.15,10.55,4.1,35.44,0,0-.51,9.97-5.58,4,0,0,2.03,7.25-1.52,14.92-3.55,7.68-8.63,11.51-9.14,8.53,0,0-14.21,33.26-44.14,35.61,0,0,2.31-26.75,7.34-31.61,5.03-4.85,10.15-32.14,10.15-32.14,0,0-6.4-21.33-19.19-13.65"/>
      <path class="cls-3" d="M98.04,94.9c.02-.14-.62-65.25-.6-65.38,0,0,.12-.07.12-.07,0,0,5.54-3.21,5.54-3.21,0,0,.23-.14.23-.14,0,0,.13.25.13.25,1.13,2.13,2.74,4.14,4.74,5.5,2.39,1.45,4.85-1.17,6.18-2.99,0,0,.21.46.21.46,1.03,2.21,2.2,4.48,3.9,6.25.55.54,1.15,1.02,1.95,1.01,3.35-.21,6.54-2.2,9.44-3.83,1.33,4.54,3.2,9.08,6.07,12.87,1.37,1.92,3.27,3.16,5.11,4.61,1.83,1.47,3.57,3.04,5.25,4.68,5,4.94,9.41,10.6,12.38,17.01.42,1,.96,1.91,1.16,2.99-.09,2.15-3.09-.04-3.99-.52,0,0,.62-.65.62-.65,6.05,11.14,5.56,26.3,3.88,38.42-.84,4.12-3.39,5.03-6.17,1.65,0,0,.97-.51.97-.51,1.16,5,.67,10.25-1.36,14.95-1.01,2.31-2.28,4.51-3.84,6.52-1.28,1.5-2.55,3.17-4.6,3.73-.39.08-.96.06-1.4-.3-.43-.36-.56-.82-.63-1.2l1.21.14c-2.08,4.59-4.68,8.84-7.62,12.88-8.84,12.28-22.26,22.42-37.83,23.17.56-5.81,1.32-11.58,2.39-17.32,1-4.78,1.86-9.77,4.33-14.07.2-.31.41-.61.66-.9,2.16-2.17,3.2-5.24,4.27-8.07,2.73-7.85,4.58-16,6.24-24.14-1.96-5.31-5.41-13.75-12.32-15.04-2.26-.36-4.56.35-6.52,1.51,0,0-.07-.11-.07-.11,1.95-1.2,4.29-1.99,6.63-1.66,6.83,1.13,10.98,9.44,12.91,15.42-1.59,8.2-3.37,16.39-6.04,24.32-1.09,2.96-2.1,6.07-4.36,8.41-2.92,4.22-3.57,9.6-4.62,14.53-.96,5.45-1.65,10.97-2.14,16.48,0,0-.69-.7-.69-.7,4.85-.42,9.63-1.65,14.06-3.69,14-6.55,24.18-19.55,30.41-33.4,0,0,.35,2.03.35,2.03.04.23.12.39.18.43.53.17,1.2-.3,1.74-.69,2.78-2.26,4.7-5.53,6.2-8.78,2.33-5.13,2.4-11.11.84-16.45.84.93,2.16,2.81,3.3,3.33,2.25,1,2.68-3.81,2.84-5.25,0,0,.46-4.48.46-4.48.64-10.27.53-21.36-4.42-30.64,0,0-1.02-1.67-1.02-1.67,0,0,1.65,1.03,1.65,1.03.83.49,1.86,1.17,2.68,1.34-.11.09-.07.14-.08.04,0-.08-.04-.2-.07-.32-3.7-9.45-10.54-17.42-18.31-23.83-6.07-3.92-9.25-10.74-11.23-17.47,0,0,.51.21.51.21-2.98,1.62-5.92,3.46-9.43,3.66-.92.03-1.77-.58-2.38-1.21-1.77-1.86-2.93-4.16-3.99-6.46,0,0,.52.05.52.05-3.34,4.19-6.12,4.28-9.46.12-.81-.98-1.52-2.02-2.1-3.16,0,0,.36.11.36.11,0,0-5.55,3.19-5.55,3.19.21-1.12.5,65.52.24,65.03h0Z"/>
    </g>
    <path class="cls-10" d="M116.65,109.19c-1.71-3.84-4.26-9.81-7.25-11.94-3.72-2.65-5.7-3.33-8.53-3.41-.28,0,1.86-.78,2.13-.85,2.41-.62,11.65-1.38,16.63-13.65.65-1.59,8.44-3.85,12.37-1.71,4.69,2.56,5.37,13-1.28,15.78-13.99,5.86-14.08,11.96-13.33,14.53.1.36-.59,1.59-.74,1.25Z"/>
    <g>
      <path class="cls-3" d="M99.86,45.36c1.11-.89,1.1-2.74,2.76-2.93,1.84-.2,2.76,1.56,3.05,3.1-.04-.23.29-.54.28-.78-.03-.44,0-.79.07-1.23l-.21.59c.45-1.25,1.78-1.15,2.46-.17.74,1.07.42,2.56.67,3.78-.05-.23.33-.54.28-.78-.26-1.31.15-3.17-.99-4.15-.74-.63-1.6-.47-2.08.38-.39.68-.53,1.62-.48,2.37l.28-.78c-.29-1.53-1.2-3.3-3.05-3.1-1.65.18-1.66,2.04-2.76,2.93-.19.15-.1.63-.28.78h0Z"/>
      <path class="cls-3" d="M107.01,61.64c0-.91-.51-3.56.63-3.87,1.43-.39,1.84,2.31,2.28,2.23.1-.02.53-1.37.66-1.55.29-.42.69-.77,1.21-.88,1.81-.36,1.89,2.28,1.76,3.43-.03.27.01.55-.02.83.1-.92.15-1.89.06-2.82s-.27-2.28-1.47-2.3c-1.1-.01-1.69,1.03-2.01,1.93-.13.36-.02.52-.28.36-.17-.11-.29-.57-.38-.75-.23-.45-.46-.91-.92-1.15-.67-.35-1.34-.15-1.51.61-.31,1.45-.03,3.2-.03,4.66,0,.03.02-.54.02-.71h0Z"/>
      <path class="cls-3" d="M100.64,86.33c-.15-.8-.28-1.62-.27-2.44.01-.97,0-3.05,1-3.74,1.78-1.23,2.01,2,1.94,2.96,0,.02,0,.1,0,.12.33-.81.67-1.63,1-2.44.22-.54.49-1.85.95-2.22,1.45-1.13,1.34,2.63,1.32,3.13h0c.94.1,1.4.73,1.52,1.64l.07-.81c-.11.93-.48,1.5-1.08,2.17-.15.17.07.66-.07.82.77-.87,1.6-2.6.95-3.82-.34-.63-1.06-.72-1.29-1.43s.13-1.7-.37-2.36c-1.09-1.45-2.08,2.56-2.43,3.27-.84,1.73-.35-.87-.92-1.65-1.22-1.67-2.24,1-2.4,1.91-.32,1.89-.33,3.82.02,5.71-.05-.26.12-.56.07-.82h0Z"/>
      <path class="cls-3" d="M133.75,119.14c-.67-1.4-.69-3.16.43-4.34l-.77.24c.77-.2,1.15,1.51,1.36,2.01,0-.01.78-.2.79-.24.15-.83.13-2.39.86-2.94l-.79.24c.88.01.83.8.7,1.47l.79-.24c.24-1.55.73-2.93,1.52-4.29l-.79.24c.46,1.07.59,2.05.42,3.2.02-.11.77-.12.79-.24.17-1.15.04-2.13-.42-3.2,0,0-.76.19-.79.24-.79,1.35-1.28,2.74-1.52,4.29.02-.12.76-.12.79-.24.2-1.04-.21-1.73-1.2-1.32-1.07.45-.97,2.02-1.15,3.04l.79-.24c-.42-1-.67-2.58-1.97-1.82-1.43.84-1.25,3.12-.63,4.41.02.04.77-.28.79-.24h0Z"/>
      <path class="cls-3" d="M115.23,140.92c-.39-1.06-.66-2.11-.82-3.22l.04.81c0-.56.14-1.41.87-1.1.38.16.38.92.75,1.05.51.18.64-1.07.79-1.57.14-.47.36-1.95.87-2.05.64-.12.78,1.05,1.05,1.32.06.35.09.35.11,0,.02-.17.05-.34.09-.51.07-.34.17-.67.3-1s.27-.64.44-.95c.24-.43.22-.64.56-.45.53.3.69,1.67.75,2.18l-.04-.81-.06,1.02c-.03.27.07.56.04.82.12-1.01.1-2.16-.26-3.12-.08-.22-.25-.79-.48-.92-.33-.19-.32.02-.56.45-.34.61-.58,1.26-.73,1.94-.04.17-.07.34-.09.51-.02.35-.05.34-.11,0-.22-.22-.24-.7-.51-.96-.67-.63-.79-.25-1.07.55-.25.74-.37,1.56-.69,2.27-.37.82-.35.43-.82-.1-.77-.87-1.22-.48-1.25.61-.03,1.38.39,2.76.86,4.03-.09-.24.05-.58-.04-.82h0Z"/>
      <path class="cls-3" d="M148.36,92.05c-.26-.98.5-2.17,1.62-1.63l-.56-.27c.33.28.45.44.58.85.02.07.76.33.74.36.41-.83,1.09-3.27,2.14-3.3l-.74-.36c.79.49.56,1.35.77,2.15.03.1.76.29.74.36.22-.84.9-1.48,1.83-1.1l-.73-.35c.52.45.7,1.01.29,1.61.02-.03.72.4.74.36,1-1.46-2.23-3.33-2.89-.87l.74.36c-.24-.91-.09-2.17-1.28-2.4-.37-.07-.4-.23-.83.13-.68.56-1.16,2.29-1.54,3.06l.74.36c-.51-1.63-3.76-2.02-3.13.33.05.18.7.19.74.36h0Z"/>
    </g>
    <circle class="cls-8" cx="129.02" cy="81.9" r="1.92"/>
    <path class="cls-3" d="M110.47,96.61c-.25,0-7.86,3.75-5.59,9.11.48,1.13,5.59-9.11,5.59-9.11Z"/>
    <circle class="cls-11" cx="127.31" cy="85.31" r="7.25"/>
    <g>
      <path class="cls-2" d="M97.25,29.66s-8.74.64-17.7,7.04c0,0-20.46,5.11-34.11,11.94-14.5,7.25-14.5,46.48-5.97,54.58,0,0,4.69,2.98,11.94,14.07s9.38,14.5,28.14,21.32c0,0,3.41,20.04,18.12,32.83l-.43-141.78Z"/>
      <path class="cls-3" d="M97.2,29.71c-6.3.84-12.42,3.41-17.6,7.1-11.51,3.1-22.99,6.66-33.73,11.87-10.01,5.17-11.81,21.69-11.86,31.84.03,3.96.36,7.93,1.13,11.8.82,3.73,1.88,7.82,4.59,10.6,1.65,1.13,3.52,3.1,4.99,4.74,6.25,6.68,9.74,15.61,16.74,21.52,5.37,4.22,11.9,6.56,18.26,8.93,0,0,.27.1.27.1l.06.3c1.93,9.2,5.86,18.13,11.58,25.6,1.91,2.5,4.09,4.78,6.44,6.85,0,0-1.03.47-1.03.47-.25-40.08-.07-101.16.15-141.74h0ZM97.29,29.61c.4,40.88,1.08,101.44,1.01,141.83,0,0,0,1.39,0,1.39-2.78-2.41-5.4-5.04-7.6-7.98-5.81-7.69-9.72-16.73-11.66-26.16,0,0,.33.4.33.4-6.41-2.42-13.06-4.84-18.5-9.17-7.08-6.01-10.54-14.99-16.76-21.71-1.51-1.7-3.12-3.41-4.92-4.71-2.89-3-3.91-7.11-4.77-11.03-.77-3.94-1.08-7.95-1.09-11.94.12-10.42,2.04-27,12.33-32.26,10.8-5.16,22.31-8.65,33.85-11.69,5.07-3.55,11.38-6.32,17.77-6.96h0Z"/>
    </g>
    <path class="cls-3" d="M80.81,47.64c.9-1.01,1.72-2.14,2.49-3.26.65-.95,1.05-1.98,1.2-3.12,0,.06-.3.38-.3.38-.24.31-.47.62-.71.93s-.47.62-.7.94c-.07.1-.27.28-.28.39-.07.53-.18,1.05-.37,1.55-.09.23-.18.46-.29.68-.05.11-.11.22-.17.33-.63,1-.26.52,1.11-1.45-.73.82-1.26,1.82-1.98,2.64h0Z"/>
    <path class="cls-3" d="M83.27,50.67c.18,0,.33-.05.49-.13.75-.38,1.46-.87,2.18-1.31.45-.28,1-.51,1.18-1.05-.01.04-.45.26-.42.24-.33.2-.67.4-1,.6s-.67.4-1,.61c-.08.05-.38.18-.41.26-.08.22-.21.4-.4.55l.05-.03.05-.03,2.58-1.56-.05.03.05-.03c-.16.08-.32.12-.49.13-.09,0-.39.22-.42.24-.33.2-.67.4-1,.6s-.67.4-1,.61l-.22.14c-.06.04-.13.08-.19.12h0Z"/>
    <path class="cls-3" d="M87.33,51.7v2.41c0,.82.12,1.65.19,2.47s.24,1.65.24,2.47v-2.41c0-.82-.12-1.65-.19-2.47s-.24-1.65-.24-2.47h0Z"/>
    <path class="cls-3" d="M46,57.87c.14.59.2,1.19.16,1.8,0-.12.11-.36.14-.46.11-.37.21-.75.32-1.12s.21-.75.31-1.13c.04-.15.11-.32.12-.47.04-.61-.02-1.21-.16-1.8.01.06-.14.46-.14.46-.11.37-.21.75-.32,1.12s-.21.75-.31,1.13c-.03.11-.15.36-.12.47h0Z"/>
    <path class="cls-3" d="M42.52,59.06c-.05.66.03,1.29.2,1.92.31,1.15.63,2.32,1.05,3.44.07.2-.06-.26-.04-.16-.09-.32-.18-.63-.28-.95-.19-.65-.36-1.31-.59-1.94-.21-.58-.1-.2.33,1.14.38,1.39.49,1.73.33,1.03-.02-.13-.04-.27-.05-.41-.03-.3-.03-.6,0-.9,0-.11-.1-.39-.13-.47-.11-.37-.22-.75-.33-1.12s-.22-.75-.34-1.12c-.04-.12-.16-.34-.15-.46h0Z"/>
    <path class="cls-3" d="M40.34,63.99c0,.59.15,1.14.44,1.66.26.47.66.9.99,1.32.24.31.47.62.71.93.09.12.23.25.3.38-.29-.52-.43-1.07-.44-1.66,0-.07-.28-.39-.28-.39-.23-.31-.47-.62-.7-.93s-.47-.62-.71-.93c-.06-.07-.3-.3-.3-.38h0Z"/>
    <path class="cls-3" d="M73.58,115.61c.34.38.6.82.76,1.31.08.23.13.47.16.72,0,.07.02.14.02.21.04.67.04-1.79,0-1.2,0,.14-.02.27-.05.41-.01.07,0,.17,0,.24,0,.19,0,.39,0,.58s0,.39,0,.58c0,.08.02.17,0,.24.09-.55.06-1.12.06-1.68,0-.45,0-.9-.08-1.34-.13-.64-.43-1.24-.87-1.73.01.01,0,.26,0,.24,0,.19,0,.39,0,.58s0,.39,0,.58c0,.05-.02.21,0,.24h0Z"/>
    <path class="cls-3" d="M89.83,139.96c.13.88.22,1.77.24,2.66.01.51.01-1.07,0-.56,0,.12,0,.23-.01.35,0,.21-.02.42-.03.62,0,.09-.01.17-.02.26-.03-.03-.05-.05-.07-.08-.05-.07-.11-.13-.15-.21-.08-.13-.15-.28-.19-.43s-.08-.31-.1-.47c0-.07-.01-.13-.02-.2v1.21c.01-.12.01-.23.03-.35.05-.4.13-.79.2-1.18.07-.42.09-.83.1-1.25,0-.6.04-1.21-.04-1.8.04.26,0,.56,0,.83s-.03.56,0,.83c0,.05.01.09.02.14.05.3.03-1.24.01-1.11-.01.11-.02.23-.03.35-.02.2-.06.41-.09.61-.07.38-.15.75-.18,1.14-.04.49-.02.98-.02,1.46,0,.39-.01.78.06,1.17.06.3.17.59.35.84.03.04.06.09.09.11.06.05.02.07.05,0,.03-.04.01-.17.02-.22.02-.21.03-.42.04-.62.04-1.01.04-2.02.01-3.03-.02-.91-.11-1.81-.24-2.71.04.26,0,.56,0,.83s-.03.56,0,.83h0Z"/>
    <g>
      <path class="cls-3" d="M52.37,55.65c6.51-4.66,15.23-4.07,21.24.99,4.91,7.79,6.23,17.67,6.11,26.76.44,10.75-9.42,14.22-4.13,25.4-10.82-13.66-18.43-5.75-26.8-12.18-6.67-11.22-8.49-29.18,3.57-40.98Z"/>
      <path class="cls-3" d="M52.46,56.89c5.96-3.89,15.9-4.85,21.24.99,2.68,2.93,3.94,8.33,4.77,12.09,1.15,5.19,1.95,11.36.73,16.65s-5.13,9.26-5.26,14.65c-.07,3.04.55,6,1.74,8.78l-.18-2.47c-4.06-4.89-8.43-8.06-14.8-8.86-4.38-.55-9.84-.34-12.6-4.36-7.87-11.48-4.93-27.94,4.34-37.47.39-.4-.55-2.09-.18-2.47-8.61,8.85-10.39,21.37-7.59,33.03.76,3.17,1.82,7.32,3.9,9.9,1.87,2.33,5.24,3.08,8.1,3.45s5.8.38,8.6,1.29c4.34,1.41,7.54,4.52,10.4,7.96-.4-.48.08-1.87-.18-2.47-3.06-7.13,1.96-11.33,3.73-17.91,1.16-4.31.6-9.11.26-13.52-.5-6.53-1.51-14.66-5.56-20.04-4.94-6.57-15.52-5.7-21.66-1.69-.35.23.5,2.26.18,2.47Z"/>
    </g>
    <path class="cls-3" d="M77.04,50.86c3.7,4.82,6.31,10.25,7.47,16.23s-.05,11.68-.26,17.74c-.18,5.25,1.8,9.94,6.35,12.55-.46-.26-.69-.92-1.15-1.18-.8-.37-1.51-.86-2.13-1.49l1.13,1.16c-5.57-6.47-1.75-15.11-2.18-22.71s-3.37-14.98-8.07-21.11c-.33-.43-.82-.75-1.15-1.18h0Z"/>
    <path class="cls-3" d="M38.69,80.33c-.16,5.7-.53,12.03,2.62,17.06,1.63,2.59,3.96,4.26,6.87,5.13s5.84,1.18,8.22,3.06c-.26-.21.28-1.43,0-1.65-3.82-3.04-9.31-2.24-12.98-5.63-4.51-4.16-4.88-10.66-4.73-16.39.01-.5-.02-1.2,0-1.59h0Z"/>
    <g>
      <path class="cls-3" d="M81.15,100.72c.86-.17,1.75.26,2.34.9s.93,1.48,1.22,2.3c1.05,2.97,1.63,6.11,1.72,9.26.03,1.28-.01,2.56.09,3.84.08,1.09.27,2.18.31,3.27.1,2.85-.89,5.73-2.71,7.92-.45-1.23-.71-2.51-.96-3.8-.57-2.91-1.13-5.81-1.69-8.72-.94-4.95-1.82-10.18-.12-14.92"/>
      <path class="cls-3" d="M81.28,101.95c5.17.58,4.82,9.25,5.08,12.92.16,2.3.55,4.78.09,7.02-.15.74-1.48,5.12-2.46,5.09-.45-.02-1.21-5.09-1.3-5.54-1.26-6.42-3.13-12.98-1.21-19.44.22-.74-.47-1.74-.26-2.46-1.21,4.08-1,8.06-.47,12.21.44,3.5,1.19,6.96,1.86,10.42.35,1.78.38,4.41,1.24,6.04.71,1.34.15,1.3,1.24.09.75-.83,1.14-2.22,1.43-3.25,1.35-4.89.67-24.86-5.49-25.56.16.02.06,2.44.26,2.46h0Z"/>
    </g>
    <g>
      <path class="cls-3" d="M59.07,119.48c-1.91-.9-2.4-4.46.54-3.15,1.13,1.65,2.09,3.41,3.89,4.6,2.83,2.19,3.91,6.4,7.15,7.99-5.98,2.6-9.45-5.17-11.53-9.52"/>
      <path class="cls-3" d="M59.07,119.07c-.48-.24-.87-.62-1.15-1.08-.13-.22-.23-.45-.3-.7-.03-.1-.03-.26-.07-.35-.08-.16.05.3,0,.32.02,0,.02-.14.04-.16.22-.4.41-.64.91-.65.28,0,.56.07.82.16.46.16.66.65.92,1.04.51.78,1.03,1.56,1.66,2.26s1.38,1.18,2.07,1.8c1.21,1.09,2.07,2.5,2.97,3.84,1,1.49,2.1,2.94,3.73,3.77v-.83c-6.07,2.56-9.49-5.24-11.53-9.52.11.22-.11.6,0,.83,2.04,4.28,5.47,12.09,11.53,9.52.02-.01.03-.81,0-.83-3.31-1.68-4.22-5.67-7.02-7.89-.84-.66-1.6-1.29-2.26-2.15-.31-.4-.59-.81-.87-1.22-.25-.37-.53-1.05-.89-1.33-.4-.31-1.32-.43-1.74-.09-.32.26-.34.66-.35,1.04-.01,1.25.35,2.42,1.55,3.02-.11-.05.12-.77,0-.83h0Z"/>
    </g>
    <path class="cls-3" d="M34.14,87.23c2.84,17.23,18.76,23.45,39.23,22.17-11.94,7.25-31.56,0-36.25-9.38-.78-1.56-2.85-11.06-2.98-12.79"/>
    <path class="cls-3" d="M49.99,110.09s8.04,17.21,14.64,20.2c6.6,2.99,12.57,5.98,12.57,5.98,0,0-5.49-15.06-18.55-24.09l3.85.17s15.79,11.4,21.1,29.28,6.34,20.03,13.42,25.13l.21,3.95s-4.23-1.6-11.81-14.93c0,0-5.46-12.48-5.88-16.74,0,0-14.02-4.87-17.24-7.98s-8.01-7.46-9.67-11.47-10.73-13.88-10.73-13.88l8.08,4.37Z"/>
  </g>
</svg>